<svg width="16" height="12" fill="none" xmlns="http://www.w3.org/2000/svg"><mask id="a" style="mask-type:alpha" maskUnits="userSpaceOnUse" x="0" y="0" width="16" height="12"><path fill="#fff" d="M0 0h16v12H0z"/></mask><g mask="url(#a)"><path fill-rule="evenodd" clip-rule="evenodd" d="M0 0v12h16V0H0Z" fill="#F7FCFF"/><mask id="b" style="mask-type:alpha" maskUnits="userSpaceOnUse" x="0" y="0" width="16" height="12"><path fill-rule="evenodd" clip-rule="evenodd" d="M0 0v12h16V0H0Z" fill="#fff"/></mask><g mask="url(#b)" fill-rule="evenodd" clip-rule="evenodd" fill="#00BCE4"><path d="M0 0v4h16V0H0ZM0 8v4h16V8H0ZM8.41 6.566l-.589.309.113-.655-.476-.51h.657l.294-.644.294.643h.657l-.475.511.112.655-.588-.31ZM5.41 5.566l-.589.309.113-.655-.476-.51h.657l.294-.644.294.643h.657l-.475.511.112.655-.588-.31ZM5.41 7.566l-.589.309.113-.655-.476-.51h.657l.294-.644.294.643h.657l-.475.511.112.655-.588-.31ZM11.41 5.566l-.589.309.113-.655-.476-.51h.657l.294-.644.294.643h.657l-.475.511.112.655-.588-.31ZM11.41 7.566l-.589.309.113-.655-.476-.51h.657l.294-.644.294.643h.657l-.475.511.112.655-.588-.31Z"/></g></g></svg>